STARTFONT 2.1
COMMENT https://github.com/pinterior/FMT_FNT.ROM
FONT -Pinterior-Graphics-Medium-R-Normal--12-110-75-75-C-60-JISX0201.1976-0
SIZE 12 75 75
FONTBOUNDINGBOX 6 12 0 -2
STARTPROPERTIES 19
FONTNAME_REGISTRY ""
FOUNDRY "Pinterior"
FAMILY_NAME "Graphics"
WEIGHT_NAME "Medium"
SLANT "R"
SETWIDTH_NAME "Normal"
ADD_STYLE_NAME ""
PIXEL_SIZE 12
POINT_SIZE 110
RESOLUTION_X 75
RESOLUTION_Y 75
SPACING "C"
AVERAGE_WIDTH 60
CHARSET_REGISTRY "JISX0201.1976"
CHARSET_ENCODING "0"
DEFAULT_CHAR 32
FONT_DESCENT 2
FONT_ASCENT 10
_GBDFED_INFO "Edited with gbdfed 1.6."
ENDPROPERTIES
CHARS 95
STARTCHAR 0x0001
ENCODING 1
SWIDTH 480 0
DWIDTH 6 0
BBX 6 12 0 -2
BITMAP
00
60
80
40
20
C0
28
28
38
28
28
00
ENDCHAR
STARTCHAR 0x0002
ENCODING 2
SWIDTH 480 0
DWIDTH 6 0
BBX 6 12 0 -2
BITMAP
00
60
80
40
20
C0
28
28
10
28
28
00
ENDCHAR
STARTCHAR 0x0003
ENCODING 3
SWIDTH 480 0
DWIDTH 6 0
BBX 6 12 0 -2
BITMAP
00
E0
80
E0
80
E0
28
28
10
28
28
00
ENDCHAR
STARTCHAR 0x0004
ENCODING 4
SWIDTH 480 0
DWIDTH 6 0
BBX 6 12 0 -2
BITMAP
00
E0
80
E0
80
E0
38
10
10
10
10
00
ENDCHAR
STARTCHAR 0x0005
ENCODING 5
SWIDTH 480 0
DWIDTH 6 0
BBX 6 12 0 -2
BITMAP
00
E0
80
E0
80
E0
38
28
28
38
08
00
ENDCHAR
STARTCHAR 0x0006
ENCODING 6
SWIDTH 480 0
DWIDTH 6 0
BBX 6 12 0 -2
BITMAP
00
40
A0
E0
A0
A0
28
28
30
28
28
00
ENDCHAR
STARTCHAR 0x0007
ENCODING 7
SWIDTH 480 0
DWIDTH 6 0
BBX 6 12 0 -2
BITMAP
00
C0
A0
C0
A0
C0
20
20
20
20
38
00
ENDCHAR
STARTCHAR 0x0008
ENCODING 8
SWIDTH 480 0
DWIDTH 6 0
BBX 6 12 0 -2
BITMAP
00
C0
A0
C0
A0
C0
18
20
10
08
30
00
ENDCHAR
STARTCHAR 0x0009
ENCODING 9
SWIDTH 480 0
DWIDTH 6 0
BBX 6 12 0 -2
BITMAP
00
A0
A0
E0
A0
A0
38
10
10
10
10
00
ENDCHAR
STARTCHAR 0x000A
ENCODING 10
SWIDTH 480 0
DWIDTH 6 0
BBX 6 12 0 -2
BITMAP
00
80
80
80
80
E0
38
20
38
20
20
00
ENDCHAR
STARTCHAR 0x000B
ENCODING 11
SWIDTH 480 0
DWIDTH 6 0
BBX 6 12 0 -2
BITMAP
00
A0
A0
E0
A0
A0
28
38
28
28
28
00
ENDCHAR
STARTCHAR 0x000C
ENCODING 12
SWIDTH 480 0
DWIDTH 6 0
BBX 6 12 0 -2
BITMAP
00
40
A0
80
A0
40
20
20
20
20
38
00
ENDCHAR
STARTCHAR 0x000D
ENCODING 13
SWIDTH 480 0
DWIDTH 6 0
BBX 6 12 0 -2
BITMAP
00
40
A0
80
A0
40
30
28
30
28
28
00
ENDCHAR
STARTCHAR 0x000E
ENCODING 14
SWIDTH 480 0
DWIDTH 6 0
BBX 6 12 0 -2
BITMAP
00
60
80
40
20
C0
10
28
28
28
10
00
ENDCHAR
STARTCHAR 0x000F
ENCODING 15
SWIDTH 480 0
DWIDTH 6 0
BBX 6 12 0 -2
BITMAP
00
60
80
40
20
C0
10
10
10
10
10
00
ENDCHAR
STARTCHAR 0x0010
ENCODING 16
SWIDTH 480 0
DWIDTH 6 0
BBX 6 12 0 -2
BITMAP
00
C0
A0
A0
A0
C0
38
20
38
20
38
00
ENDCHAR
STARTCHAR 0x0011
ENCODING 17
SWIDTH 480 0
DWIDTH 6 0
BBX 6 12 0 -2
BITMAP
00
C0
A0
A0
A0
C0
10
10
10
10
10
00
ENDCHAR
STARTCHAR 0x0012
ENCODING 18
SWIDTH 480 0
DWIDTH 6 0
BBX 6 12 0 -2
BITMAP
00
C0
A0
A0
A0
C0
30
08
18
20
38
00
ENDCHAR
STARTCHAR 0x0013
ENCODING 19
SWIDTH 480 0
DWIDTH 6 0
BBX 6 12 0 -2
BITMAP
00
C0
A0
A0
A0
C0
38
08
10
08
38
00
ENDCHAR
STARTCHAR 0x0014
ENCODING 20
SWIDTH 480 0
DWIDTH 6 0
BBX 6 12 0 -2
BITMAP
00
C0
A0
A0
A0
C0
28
28
38
08
08
00
ENDCHAR
STARTCHAR 0x0015
ENCODING 21
SWIDTH 480 0
DWIDTH 6 0
BBX 6 12 0 -2
BITMAP
00
A0
E0
E0
E0
A0
28
28
30
28
28
00
ENDCHAR
STARTCHAR 0x0016
ENCODING 22
SWIDTH 480 0
DWIDTH 6 0
BBX 6 12 0 -2
BITMAP
00
60
80
40
20
C0
28
38
38
38
28
00
ENDCHAR
STARTCHAR 0x0017
ENCODING 23
SWIDTH 480 0
DWIDTH 6 0
BBX 6 12 0 -2
BITMAP
00
E0
80
E0
80
E0
30
28
30
28
30
00
ENDCHAR
STARTCHAR 0x0018
ENCODING 24
SWIDTH 480 0
DWIDTH 6 0
BBX 6 12 0 -2
BITMAP
00
40
A0
80
A0
40
28
38
38
38
28
00
ENDCHAR
STARTCHAR 0x0019
ENCODING 25
SWIDTH 480 0
DWIDTH 6 0
BBX 6 12 0 -2
BITMAP
00
E0
80
E0
80
E0
28
38
28
28
28
00
ENDCHAR
STARTCHAR 0x001A
ENCODING 26
SWIDTH 480 0
DWIDTH 6 0
BBX 6 12 0 -2
BITMAP
00
60
80
40
20
C0
30
28
30
28
30
00
ENDCHAR
STARTCHAR 0x001B
ENCODING 27
SWIDTH 480 0
DWIDTH 6 0
BBX 6 12 0 -2
BITMAP
00
E0
80
E0
80
E0
10
28
20
28
10
00
ENDCHAR
STARTCHAR 0x001C
ENCODING 28
SWIDTH 480 0
DWIDTH 6 0
BBX 6 12 0 -2
BITMAP
00
00
00
20
10
F8
10
20
00
00
00
00
ENDCHAR
STARTCHAR 0x001D
ENCODING 29
SWIDTH 480 0
DWIDTH 6 0
BBX 6 12 0 -2
BITMAP
00
00
00
20
40
F8
40
20
00
00
00
00
ENDCHAR
STARTCHAR 0x001E
ENCODING 30
SWIDTH 480 0
DWIDTH 6 0
BBX 6 12 0 -2
BITMAP
00
20
70
A8
20
20
20
20
20
20
00
00
ENDCHAR
STARTCHAR 0x001F
ENCODING 31
SWIDTH 480 0
DWIDTH 6 0
BBX 6 12 0 -2
BITMAP
00
20
20
20
20
20
20
A8
70
20
00
00
ENDCHAR
STARTCHAR 0x007F
ENCODING 127
SWIDTH 480 0
DWIDTH 6 0
BBX 6 12 0 -2
BITMAP
00
C0
A0
A0
A0
C0
20
20
20
20
38
00
ENDCHAR
STARTCHAR 0x0080
ENCODING 128
SWIDTH 480 0
DWIDTH 6 0
BBX 6 12 0 -2
BITMAP
00
00
00
00
00
00
00
00
00
00
00
FC
ENDCHAR
STARTCHAR 0x0081
ENCODING 129
SWIDTH 480 0
DWIDTH 6 0
BBX 6 12 0 -2
BITMAP
00
00
00
00
00
00
00
00
00
FC
FC
FC
ENDCHAR
STARTCHAR 0x0082
ENCODING 130
SWIDTH 480 0
DWIDTH 6 0
BBX 6 12 0 -2
BITMAP
00
00
00
00
00
00
00
00
FC
FC
FC
FC
ENDCHAR
STARTCHAR 0x0083
ENCODING 131
SWIDTH 480 0
DWIDTH 6 0
BBX 6 12 0 -2
BITMAP
00
00
00
00
00
00
FC
FC
FC
FC
FC
FC
ENDCHAR
STARTCHAR 0x0084
ENCODING 132
SWIDTH 480 0
DWIDTH 6 0
BBX 6 12 0 -2
BITMAP
00
00
00
00
00
FC
FC
FC
FC
FC
FC
FC
ENDCHAR
STARTCHAR 0x0085
ENCODING 133
SWIDTH 480 0
DWIDTH 6 0
BBX 6 12 0 -2
BITMAP
00
00
00
FC
FC
FC
FC
FC
FC
FC
FC
FC
ENDCHAR
STARTCHAR 0x0086
ENCODING 134
SWIDTH 480 0
DWIDTH 6 0
BBX 6 12 0 -2
BITMAP
00
00
FC
FC
FC
FC
FC
FC
FC
FC
FC
FC
ENDCHAR
STARTCHAR 0x0087
ENCODING 135
SWIDTH 480 0
DWIDTH 6 0
BBX 6 12 0 -2
BITMAP
FC
FC
FC
FC
FC
FC
FC
FC
FC
FC
FC
FC
ENDCHAR
STARTCHAR 0x0088
ENCODING 136
SWIDTH 480 0
DWIDTH 6 0
BBX 6 12 0 -2
BITMAP
80
80
80
80
80
80
80
80
80
80
80
80
ENDCHAR
STARTCHAR 0x0089
ENCODING 137
SWIDTH 480 0
DWIDTH 6 0
BBX 6 12 0 -2
BITMAP
C0
C0
C0
C0
C0
C0
C0
C0
C0
C0
C0
C0
ENDCHAR
STARTCHAR 0x008A
ENCODING 138
SWIDTH 480 0
DWIDTH 6 0
BBX 6 12 0 -2
BITMAP
C0
C0
C0
C0
C0
C0
C0
C0
C0
C0
C0
C0
ENDCHAR
STARTCHAR 0x008B
ENCODING 139
SWIDTH 480 0
DWIDTH 6 0
BBX 6 12 0 -2
BITMAP
E0
E0
E0
E0
E0
E0
E0
E0
E0
E0
E0
E0
ENDCHAR
STARTCHAR 0x008C
ENCODING 140
SWIDTH 480 0
DWIDTH 6 0
BBX 6 12 0 -2
BITMAP
F0
F0
F0
F0
F0
F0
F0
F0
F0
F0
F0
F0
ENDCHAR
STARTCHAR 0x008D
ENCODING 141
SWIDTH 480 0
DWIDTH 6 0
BBX 6 12 0 -2
BITMAP
F0
F0
F0
F0
F0
F0
F0
F0
F0
F0
F0
F0
ENDCHAR
STARTCHAR 0x008E
ENCODING 142
SWIDTH 480 0
DWIDTH 6 0
BBX 6 12 0 -2
BITMAP
F8
F8
F8
F8
F8
F8
F8
F8
F8
F8
F8
F8
ENDCHAR
STARTCHAR 0x008F
ENCODING 143
SWIDTH 480 0
DWIDTH 6 0
BBX 6 12 0 -2
BITMAP
20
20
20
20
20
FC
20
20
20
20
20
20
ENDCHAR
STARTCHAR 0x0090
ENCODING 144
SWIDTH 480 0
DWIDTH 6 0
BBX 6 12 0 -2
BITMAP
20
20
20
20
20
FC
00
00
00
00
00
00
ENDCHAR
STARTCHAR 0x0091
ENCODING 145
SWIDTH 480 0
DWIDTH 6 0
BBX 6 12 0 -2
BITMAP
00
00
00
00
00
FC
20
20
20
20
20
20
ENDCHAR
STARTCHAR 0x0092
ENCODING 146
SWIDTH 480 0
DWIDTH 6 0
BBX 6 12 0 -2
BITMAP
20
20
20
20
20
E0
20
20
20
20
20
20
ENDCHAR
STARTCHAR 0x0093
ENCODING 147
SWIDTH 480 0
DWIDTH 6 0
BBX 6 12 0 -2
BITMAP
20
20
20
20
20
3C
20
20
20
20
20
20
ENDCHAR
STARTCHAR 0x0094
ENCODING 148
SWIDTH 480 0
DWIDTH 6 0
BBX 6 12 0 -2
BITMAP
FC
00
00
00
00
00
00
00
00
00
00
00
ENDCHAR
STARTCHAR 0x0095
ENCODING 149
SWIDTH 480 0
DWIDTH 6 0
BBX 6 12 0 -2
BITMAP
00
00
00
00
00
FC
00
00
00
00
00
00
ENDCHAR
STARTCHAR 0x0096
ENCODING 150
SWIDTH 480 0
DWIDTH 6 0
BBX 6 12 0 -2
BITMAP
20
20
20
20
20
20
20
20
20
20
20
20
ENDCHAR
STARTCHAR 0x0097
ENCODING 151
SWIDTH 480 0
DWIDTH 6 0
BBX 6 12 0 -2
BITMAP
04
04
04
04
04
04
04
04
04
04
04
04
ENDCHAR
STARTCHAR 0x0098
ENCODING 152
SWIDTH 480 0
DWIDTH 6 0
BBX 6 12 0 -2
BITMAP
00
00
00
00
00
3C
20
20
20
20
20
20
ENDCHAR
STARTCHAR 0x0099
ENCODING 153
SWIDTH 480 0
DWIDTH 6 0
BBX 6 12 0 -2
BITMAP
00
00
00
00
00
E0
20
20
20
20
20
20
ENDCHAR
STARTCHAR 0x009A
ENCODING 154
SWIDTH 480 0
DWIDTH 6 0
BBX 6 12 0 -2
BITMAP
20
20
20
20
20
3C
00
00
00
00
00
00
ENDCHAR
STARTCHAR 0x009B
ENCODING 155
SWIDTH 480 0
DWIDTH 6 0
BBX 6 12 0 -2
BITMAP
20
20
20
20
20
E0
00
00
00
00
00
00
ENDCHAR
STARTCHAR 0x009C
ENCODING 156
SWIDTH 480 0
DWIDTH 6 0
BBX 6 12 0 -2
BITMAP
00
00
00
00
00
0C
10
10
20
20
20
20
ENDCHAR
STARTCHAR 0x009D
ENCODING 157
SWIDTH 480 0
DWIDTH 6 0
BBX 6 12 0 -2
BITMAP
00
00
00
00
00
80
40
40
20
20
20
20
ENDCHAR
STARTCHAR 0x009E
ENCODING 158
SWIDTH 480 0
DWIDTH 6 0
BBX 6 12 0 -2
BITMAP
20
20
20
10
10
0C
00
00
00
00
00
00
ENDCHAR
STARTCHAR 0x009F
ENCODING 159
SWIDTH 480 0
DWIDTH 6 0
BBX 6 12 0 -2
BITMAP
20
20
20
40
40
80
00
00
00
00
00
00
ENDCHAR
STARTCHAR 0x00E0
ENCODING 224
SWIDTH 480 0
DWIDTH 6 0
BBX 6 12 0 -2
BITMAP
00
00
00
00
FC
00
FC
00
00
00
00
00
ENDCHAR
STARTCHAR 0x00E1
ENCODING 225
SWIDTH 480 0
DWIDTH 6 0
BBX 6 12 0 -2
BITMAP
20
20
20
20
3C
20
3C
20
20
20
20
20
ENDCHAR
STARTCHAR 0x00E2
ENCODING 226
SWIDTH 480 0
DWIDTH 6 0
BBX 6 12 0 -2
BITMAP
20
20
20
20
FC
20
FC
20
20
20
20
20
ENDCHAR
STARTCHAR 0x00E3
ENCODING 227
SWIDTH 480 0
DWIDTH 6 0
BBX 6 12 0 -2
BITMAP
20
20
20
20
E0
20
E0
20
20
20
20
20
ENDCHAR
STARTCHAR 0x00E4
ENCODING 228
SWIDTH 480 0
DWIDTH 6 0
BBX 6 12 0 -2
BITMAP
FC
FC
F8
F8
F0
F0
E0
E0
C0
C0
80
80
ENDCHAR
STARTCHAR 0x00E5
ENCODING 229
SWIDTH 480 0
DWIDTH 6 0
BBX 6 12 0 -2
BITMAP
80
80
C0
C0
E0
E0
F0
F0
F8
F8
FC
FC
ENDCHAR
STARTCHAR 0x00E6
ENCODING 230
SWIDTH 480 0
DWIDTH 6 0
BBX 6 12 0 -2
BITMAP
FC
FC
7C
7C
3C
3C
1C
1C
0C
0C
04
04
ENDCHAR
STARTCHAR 0x00E7
ENCODING 231
SWIDTH 480 0
DWIDTH 6 0
BBX 6 12 0 -2
BITMAP
04
04
0C
0C
1C
1C
3C
3C
7C
7C
FC
FC
ENDCHAR
STARTCHAR 0x00E8
ENCODING 232
SWIDTH 480 0
DWIDTH 6 0
BBX 6 12 0 -2
BITMAP
00
20
20
70
F8
F8
F8
F8
20
70
00
00
ENDCHAR
STARTCHAR 0x00E9
ENCODING 233
SWIDTH 480 0
DWIDTH 6 0
BBX 6 12 0 -2
BITMAP
00
50
F8
F8
F8
F8
70
70
20
20
00
00
ENDCHAR
STARTCHAR 0x00EA
ENCODING 234
SWIDTH 480 0
DWIDTH 6 0
BBX 6 12 0 -2
BITMAP
00
20
20
70
70
F8
70
70
20
20
00
00
ENDCHAR
STARTCHAR 0x00EB
ENCODING 235
SWIDTH 480 0
DWIDTH 6 0
BBX 6 12 0 -2
BITMAP
00
70
70
20
D8
F8
D8
20
20
70
00
00
ENDCHAR
STARTCHAR 0x00EC
ENCODING 236
SWIDTH 480 0
DWIDTH 6 0
BBX 6 12 0 -2
BITMAP
00
20
70
F8
F8
F8
F8
F8
70
20
00
00
ENDCHAR
STARTCHAR 0x00ED
ENCODING 237
SWIDTH 480 0
DWIDTH 6 0
BBX 6 12 0 -2
BITMAP
00
20
50
88
88
88
88
88
50
20
00
00
ENDCHAR
STARTCHAR 0x00EE
ENCODING 238
SWIDTH 480 0
DWIDTH 6 0
BBX 6 12 0 -2
BITMAP
04
04
08
08
10
10
20
20
40
40
80
80
ENDCHAR
STARTCHAR 0x00EF
ENCODING 239
SWIDTH 480 0
DWIDTH 6 0
BBX 6 12 0 -2
BITMAP
80
80
40
40
20
20
10
10
08
08
04
04
ENDCHAR
STARTCHAR 0x00F0
ENCODING 240
SWIDTH 480 0
DWIDTH 6 0
BBX 6 12 0 -2
BITMAP
84
84
48
48
30
30
30
30
48
48
84
84
ENDCHAR
STARTCHAR 0x00F1
ENCODING 241
SWIDTH 480 0
DWIDTH 6 0
BBX 6 12 0 -2
BITMAP
00
F8
A8
A8
A8
F8
88
88
88
88
00
00
ENDCHAR
STARTCHAR 0x00F2
ENCODING 242
SWIDTH 480 0
DWIDTH 6 0
BBX 6 12 0 -2
BITMAP
40
78
90
10
78
50
50
F8
10
10
00
00
ENDCHAR
STARTCHAR 0x00F3
ENCODING 243
SWIDTH 480 0
DWIDTH 6 0
BBX 6 12 0 -2
BITMAP
00
78
48
48
78
48
78
48
88
88
00
00
ENDCHAR
STARTCHAR 0x00F4
ENCODING 244
SWIDTH 480 0
DWIDTH 6 0
BBX 6 12 0 -2
BITMAP
00
F8
88
88
88
F8
88
88
88
F8
00
00
ENDCHAR
STARTCHAR 0x00F5
ENCODING 245
SWIDTH 480 0
DWIDTH 6 0
BBX 6 12 0 -2
BITMAP
10
38
10
FC
A8
FC
A8
E8
18
08
00
00
ENDCHAR
STARTCHAR 0x00F6
ENCODING 246
SWIDTH 480 0
DWIDTH 6 0
BBX 6 12 0 -2
BITMAP
00
48
48
48
84
84
78
28
28
28
00
00
ENDCHAR
STARTCHAR 0x00F7
ENCODING 247
SWIDTH 480 0
DWIDTH 6 0
BBX 6 12 0 -2
BITMAP
00
E8
48
E8
5C
5C
FC
E4
48
50
00
00
ENDCHAR
STARTCHAR 0x00F8
ENCODING 248
SWIDTH 480 0
DWIDTH 6 0
BBX 6 12 0 -2
BITMAP
00
F8
00
F8
20
20
20
20
20
20
00
00
ENDCHAR
STARTCHAR 0x00F9
ENCODING 249
SWIDTH 480 0
DWIDTH 6 0
BBX 6 12 0 -2
BITMAP
00
20
F8
20
F8
A8
A8
A8
20
20
00
00
ENDCHAR
STARTCHAR 0x00FA
ENCODING 250
SWIDTH 480 0
DWIDTH 6 0
BBX 6 12 0 -2
BITMAP
00
F8
80
C8
A8
90
A8
C8
80
F8
00
00
ENDCHAR
STARTCHAR 0x00FB
ENCODING 251
SWIDTH 480 0
DWIDTH 6 0
BBX 6 12 0 -2
BITMAP
00
00
FC
A8
F8
A8
F8
08
08
08
00
00
ENDCHAR
STARTCHAR 0x00FC
ENCODING 252
SWIDTH 480 0
DWIDTH 6 0
BBX 6 12 0 -2
BITMAP
00
48
E8
5C
48
48
E8
F8
48
48
00
00
ENDCHAR
STARTCHAR 0x00FD
ENCODING 253
SWIDTH 480 0
DWIDTH 6 0
BBX 6 12 0 -2
BITMAP
00
20
20
20
20
50
50
50
88
88
00
00
ENDCHAR
STARTCHAR 0x00FE
ENCODING 254
SWIDTH 480 0
DWIDTH 6 0
BBX 6 12 0 -2
BITMAP
54
A8
54
A8
54
A8
54
A8
54
A8
54
A8
ENDCHAR
ENDFONT
